<svg xmlns="http://www.w3.org/2000/svg" xmlns:xlink="http://www.w3.org/1999/xlink" width="500" zoomAndPan="magnify" viewBox="0 0 375 374.999991" height="500" preserveAspectRatio="xMidYMid meet" version="1.0"><defs><clipPath id="303dfe7d90"><path d="M 112.5 131.25 L 262.5 131.25 L 262.5 243.75 L 112.5 243.75 Z M 112.5 131.25 " clip-rule="nonzero"/></clipPath></defs><rect x="-37.5" width="450" fill="#ffffff" y="-37.499999" height="449.999989" fill-opacity="1"/><rect x="-37.5" width="450" fill="#545454" y="-37.499999" height="449.999989" fill-opacity="1"/><g clip-path="url(#303dfe7d90)"><path fill="#ffffff" d="M 113.671875 228.515625 C 114.320312 228.515625 114.84375 227.992188 114.84375 227.34375 L 114.84375 159.960938 C 114.84375 153.210938 120.3125 147.714844 127.03125 147.714844 L 153.394531 147.714844 C 154.910156 147.714844 156.316406 146.835938 156.984375 145.472656 L 161.5625 136.105469 C 162.308594 134.582031 163.886719 133.59375 165.578125 133.59375 L 209.34375 133.59375 C 211.085938 133.59375 212.703125 134.605469 213.46875 136.175781 L 218.015625 145.472656 C 218.683594 146.835938 220.089844 147.714844 221.605469 147.714844 L 247.96875 147.714844 C 254.6875 147.714844 260.15625 153.210938 260.15625 159.960938 L 260.15625 241.40625 L 188.386719 241.40625 C 167.363281 241.40625 149.835938 224.648438 149.308594 204.050781 C 149.039062 193.570312 152.90625 183.679688 160.195312 176.195312 C 167.445312 168.757812 177.140625 164.664062 187.5 164.664062 C 208.566406 164.664062 225.703125 181.875 225.703125 203.035156 C 225.703125 203.683594 226.226562 204.207031 226.875 204.207031 C 227.523438 204.207031 228.046875 203.683594 228.046875 203.035156 C 228.046875 180.585938 209.859375 162.320312 187.5 162.320312 C 176.503906 162.320312 166.210938 166.667969 158.515625 174.5625 C 150.78125 182.5 146.679688 192.992188 146.96875 204.109375 C 147.523438 225.96875 166.101562 243.75 188.386719 243.75 L 261.257812 243.75 C 261.90625 243.75 262.5 243.15625 262.5 242.507812 L 262.5 159.960938 C 262.5 151.917969 255.980469 145.371094 247.96875 145.371094 L 221.605469 145.371094 C 220.96875 145.371094 220.402344 145.015625 220.121094 144.441406 L 215.574219 135.144531 C 214.417969 132.78125 211.972656 131.25 209.34375 131.25 L 165.578125 131.25 C 162.996094 131.25 160.59375 132.753906 159.457031 135.078125 L 154.878906 144.441406 C 154.597656 145.015625 154.03125 145.371094 153.394531 145.371094 L 145.3125 145.371094 L 145.3125 144.140625 C 145.3125 142.203125 143.734375 140.625 141.796875 140.625 L 132.421875 140.625 C 130.484375 140.625 128.90625 142.203125 128.90625 144.140625 L 128.90625 145.371094 L 127.03125 145.371094 C 119.019531 145.371094 112.5 151.917969 112.5 159.960938 L 112.5 227.34375 C 112.5 227.992188 113.023438 228.515625 113.671875 228.515625 Z M 131.25 144.140625 C 131.25 143.496094 131.777344 142.96875 132.421875 142.96875 L 141.796875 142.96875 C 142.441406 142.96875 142.96875 143.496094 142.96875 144.140625 L 142.96875 145.371094 L 131.25 145.371094 Z M 131.25 144.140625 " fill-opacity="1" fill-rule="nonzero"/></g><path fill="#ffffff" d="M 207.9375 139.242188 C 208.585938 139.242188 209.109375 138.71875 209.109375 138.070312 C 209.109375 137.421875 208.585938 136.898438 207.9375 136.898438 L 166.984375 136.898438 C 166.335938 136.898438 165.8125 137.421875 165.8125 138.070312 C 165.8125 138.71875 166.335938 139.242188 166.984375 139.242188 Z M 207.9375 139.242188 " fill-opacity="1" fill-rule="nonzero"/><path fill="#ffffff" d="M 129.140625 158.5625 C 127.203125 158.5625 125.625 160.140625 125.625 162.078125 L 125.625 168.691406 C 125.625 170.628906 127.203125 172.207031 129.140625 172.207031 L 142.734375 172.207031 C 144.671875 172.207031 146.25 170.628906 146.25 168.691406 L 146.25 162.078125 C 146.25 160.140625 144.671875 158.5625 142.734375 158.5625 Z M 143.90625 162.078125 L 143.90625 168.691406 C 143.90625 169.335938 143.378906 169.863281 142.734375 169.863281 L 129.140625 169.863281 C 128.496094 169.863281 127.96875 169.335938 127.96875 168.691406 L 127.96875 162.078125 C 127.96875 161.433594 128.496094 160.90625 129.140625 160.90625 L 142.734375 160.90625 C 143.378906 160.90625 143.90625 161.433594 143.90625 162.078125 Z M 143.90625 162.078125 " fill-opacity="1" fill-rule="nonzero"/><path fill="#ffffff" d="M 187.5 170.792969 C 169.792969 170.792969 155.390625 185.257812 155.390625 203.035156 C 155.390625 220.8125 169.792969 235.277344 187.5 235.277344 C 205.207031 235.277344 219.609375 220.8125 219.609375 203.035156 C 219.609375 185.257812 205.207031 170.792969 187.5 170.792969 Z M 187.5 232.933594 C 171.085938 232.933594 157.734375 219.519531 157.734375 203.035156 C 157.734375 186.550781 171.085938 173.136719 187.5 173.136719 C 203.914062 173.136719 217.265625 186.550781 217.265625 203.035156 C 217.265625 219.519531 203.914062 232.933594 187.5 232.933594 Z M 187.5 232.933594 " fill-opacity="1" fill-rule="nonzero"/><path fill="#ffffff" d="M 188.671875 183.261719 C 188.671875 182.617188 188.148438 182.089844 187.5 182.089844 C 176 182.089844 166.640625 191.488281 166.640625 203.035156 C 166.640625 203.683594 167.164062 204.207031 167.8125 204.207031 C 168.460938 204.207031 168.984375 203.683594 168.984375 203.035156 C 168.984375 192.777344 177.289062 184.433594 187.5 184.433594 C 188.148438 184.433594 188.671875 183.910156 188.671875 183.261719 Z M 188.671875 183.261719 " fill-opacity="1" fill-rule="nonzero"/><path fill="#ffffff" d="M 207.1875 201.863281 C 206.539062 201.863281 206.015625 202.386719 206.015625 203.035156 C 206.015625 213.289062 197.710938 221.636719 187.5 221.636719 C 186.851562 221.636719 186.328125 222.160156 186.328125 222.808594 C 186.328125 223.453125 186.851562 223.980469 187.5 223.980469 C 199 223.980469 208.359375 214.582031 208.359375 203.035156 C 208.359375 202.386719 207.835938 201.863281 207.1875 201.863281 Z M 207.1875 201.863281 " fill-opacity="1" fill-rule="nonzero"/></svg>